<svg xmlns="http://www.w3.org/2000/svg" xmlns:xlink="http://www.w3.org/1999/xlink" width="500" zoomAndPan="magnify" viewBox="0 0 375 225" height="300" preserveAspectRatio="xMidYMid meet" version="1.0"><defs><g/><clipPath id="id1"><path d="M 16.320312 3.488281 L 230.820312 3.488281 L 230.820312 221.554688 L 16.320312 221.554688 Z M 16.320312 3.488281 " clip-rule="nonzero"/></clipPath></defs><rect x="-37.5" width="450" fill="#ffffff" y="-22.5" height="270" fill-opacity="1"/><rect x="-37.5" width="450" fill="#ffffff" y="-22.5" height="270" fill-opacity="1"/><rect x="-37.5" width="450" fill="#ffffff" y="-22.5" height="270" fill-opacity="1"/><rect x="-37.5" width="450" fill="#ffffff" y="-22.5" height="270" fill-opacity="1"/><g clip-path="url(#id1)"><path fill="#03989e" d="M 124.402344 26.976562 C 120.488281 28.878906 116.679688 30.945312 113.007812 33.214844 C 109.34375 35.488281 105.824219 37.980469 102.609375 40.777344 C 99.390625 43.566406 96.480469 46.671875 94.121094 50.097656 C 91.757812 53.519531 89.996094 57.292969 89.066406 61.242188 C 88.601562 63.21875 88.335938 65.230469 88.269531 67.253906 C 88.230469 68.273438 88.25 69.269531 88.3125 70.304688 C 88.332031 70.875 88.386719 71.335938 88.425781 71.832031 C 88.484375 72.335938 88.527344 72.84375 88.605469 73.34375 C 88.742188 74.34375 88.933594 75.328125 89.171875 76.292969 C 89.414062 77.253906 89.691406 78.195312 90.042969 79.101562 C 90.738281 80.914062 91.648438 82.597656 92.796875 84.085938 C 93.9375 85.578125 95.308594 86.878906 96.859375 87.980469 C 98.40625 89.085938 100.128906 89.992188 101.957031 90.738281 C 105.625 92.222656 109.671875 93.070312 113.804688 93.589844 C 117.945312 94.109375 122.1875 94.304688 126.464844 94.359375 C 130.742188 94.40625 135.058594 94.3125 139.394531 94.175781 C 148.074219 93.898438 156.851562 93.472656 165.765625 93.523438 C 170.222656 93.558594 174.71875 93.707031 179.257812 94.109375 C 183.789062 94.515625 188.371094 95.167969 192.953125 96.308594 C 197.527344 97.445312 202.125 99.066406 206.484375 101.484375 C 208.65625 102.691406 210.757812 104.105469 212.730469 105.722656 L 213.398438 106.28125 L 214.109375 106.894531 C 214.574219 107.304688 215.019531 107.703125 215.464844 108.121094 C 216.351562 108.953125 217.214844 109.816406 218.050781 110.710938 C 221.390625 114.289062 224.265625 118.402344 226.433594 122.917969 C 228.597656 127.433594 230.050781 132.351562 230.585938 137.429688 C 231.121094 142.507812 230.769531 147.746094 229.257812 152.84375 C 228.5 155.390625 227.445312 157.90625 226.023438 160.304688 C 224.59375 162.695312 222.785156 164.988281 220.488281 166.957031 C 218.207031 168.921875 215.386719 170.546875 212.242188 171.429688 C 210.675781 171.871094 209.046875 172.128906 207.421875 172.191406 C 205.796875 172.253906 204.1875 172.117188 202.640625 171.832031 C 201.097656 171.539062 199.621094 171.101562 198.234375 170.554688 L 197.976562 170.449219 L 197.847656 170.398438 L 197.625 170.304688 L 197.25 170.140625 L 196.871094 169.980469 L 196.351562 169.734375 L 195.832031 169.484375 C 195.65625 169.398438 195.519531 169.324219 195.363281 169.246094 C 195.0625 169.085938 194.75 168.933594 194.457031 168.765625 C 192.074219 167.460938 189.953125 165.9375 187.984375 164.332031 C 184.078125 161.101562 180.800781 157.539062 177.835938 153.863281 C 174.863281 150.191406 172.210938 146.390625 169.738281 142.523438 C 167.277344 138.652344 164.976562 134.730469 162.816406 130.757812 C 160.648438 126.789062 158.609375 122.777344 156.675781 118.734375 C 152.789062 110.648438 149.289062 102.441406 146.085938 94.148438 C 144.5 89.996094 142.964844 85.832031 141.519531 81.636719 C 140.058594 77.449219 138.691406 73.234375 137.375 69.007812 C 136.058594 64.777344 134.820312 60.527344 133.632812 56.257812 C 133.046875 54.121094 132.46875 51.984375 131.914062 49.832031 L 131.09375 46.597656 L 130.691406 44.964844 L 130.292969 43.289062 L 147.34375 42.835938 L 147.128906 43.824219 L 146.917969 44.738281 L 146.488281 46.527344 C 146.199219 47.707031 145.898438 48.878906 145.589844 50.046875 C 144.976562 52.378906 144.332031 54.6875 143.664062 56.988281 C 142.320312 61.585938 140.867188 66.136719 139.335938 70.652344 C 137.792969 75.167969 136.160156 79.644531 134.441406 84.085938 C 132.710938 88.527344 130.90625 92.933594 129 97.296875 C 127.089844 101.660156 125.101562 105.988281 123.007812 110.265625 C 120.925781 114.546875 118.738281 118.78125 116.464844 122.964844 C 114.195312 127.148438 111.808594 131.273438 109.34375 135.351562 C 106.867188 139.421875 104.304688 143.4375 101.628906 147.378906 C 98.953125 151.324219 96.175781 155.199219 93.292969 158.992188 C 91.855469 160.890625 90.386719 162.765625 88.890625 164.621094 C 87.398438 166.476562 85.875 168.308594 84.324219 170.117188 C 82.78125 171.929688 81.207031 173.71875 79.597656 175.476562 C 77.996094 177.234375 76.371094 178.976562 74.707031 180.679688 C 73.050781 182.386719 71.359375 184.066406 69.648438 185.714844 C 67.9375 187.371094 66.199219 188.992188 64.433594 190.585938 C 60.894531 193.761719 57.253906 196.820312 53.507812 199.734375 C 51.632812 201.191406 49.726562 202.605469 47.804688 203.992188 C 45.878906 205.375 43.929688 206.722656 41.949219 208.019531 C 34.042969 213.234375 25.742188 217.804688 17.121094 221.554688 L 16.316406 220.015625 C 20.265625 217.554688 24.140625 215.011719 27.894531 212.300781 C 29.777344 210.960938 31.628906 209.578125 33.453125 208.164062 C 35.28125 206.757812 37.078125 205.3125 38.851562 203.847656 C 40.625 202.378906 42.359375 200.867188 44.085938 199.351562 C 45.800781 197.820312 47.492188 196.269531 49.152344 194.683594 C 52.472656 191.515625 55.699219 188.257812 58.796875 184.882812 C 61.90625 181.523438 64.910156 178.074219 67.796875 174.527344 C 68.523438 173.644531 69.234375 172.75 69.949219 171.863281 C 70.65625 170.960938 71.367188 170.070312 72.058594 169.164062 C 73.453125 167.351562 74.828125 165.527344 76.167969 163.683594 C 78.859375 159.992188 81.449219 156.234375 83.9375 152.410156 C 86.4375 148.589844 88.828125 144.703125 91.136719 140.769531 C 93.4375 136.832031 95.660156 132.847656 97.78125 128.8125 C 99.914062 124.78125 101.945312 120.699219 103.90625 116.582031 C 105.859375 112.460938 107.738281 108.304688 109.53125 104.109375 C 111.316406 99.914062 113.039062 95.691406 114.667969 91.433594 C 116.300781 87.179688 117.863281 82.894531 119.332031 78.582031 C 120.808594 74.273438 122.207031 69.9375 123.519531 65.582031 C 124.835938 61.230469 126.058594 56.851562 127.195312 52.464844 C 127.761719 50.273438 128.304688 48.082031 128.816406 45.890625 C 129.066406 44.796875 129.316406 43.703125 129.546875 42.617188 L 129.890625 40.996094 L 130.050781 40.199219 L 130.191406 39.480469 L 137.101562 3.488281 L 147.242188 39.027344 L 148.105469 42.046875 L 149.003906 45.125 C 149.613281 47.175781 150.222656 49.234375 150.847656 51.285156 C 152.09375 55.394531 153.378906 59.496094 154.675781 63.585938 C 155.972656 67.679688 157.316406 71.757812 158.660156 75.832031 C 160.023438 79.894531 161.398438 83.957031 162.828125 87.988281 C 164.242188 92.027344 165.714844 96.039062 167.21875 100.027344 C 168.738281 104.011719 170.285156 107.980469 171.929688 111.890625 C 175.222656 119.707031 178.769531 127.382812 182.875 134.582031 C 184.933594 138.175781 187.121094 141.648438 189.484375 144.882812 C 190.667969 146.5 191.90625 148.042969 193.183594 149.5 C 193.824219 150.222656 194.472656 150.933594 195.136719 151.605469 C 195.800781 152.277344 196.480469 152.917969 197.164062 153.527344 C 198.539062 154.730469 199.945312 155.808594 201.367188 156.648438 C 201.542969 156.761719 201.722656 156.855469 201.898438 156.957031 C 201.984375 157.003906 202.085938 157.066406 202.152344 157.101562 L 202.367188 157.214844 L 202.578125 157.332031 L 203.320312 157.675781 C 203.453125 157.738281 203.246094 157.648438 203.289062 157.664062 L 203.347656 157.691406 L 203.464844 157.742188 C 204.101562 158.023438 204.722656 158.226562 205.320312 158.367188 C 206.519531 158.632812 207.617188 158.636719 208.699219 158.382812 C 209.777344 158.125 210.871094 157.59375 211.925781 156.753906 C 212.980469 155.921875 213.976562 154.789062 214.828125 153.46875 C 215.679688 152.144531 216.390625 150.628906 216.929688 149.011719 C 218.007812 145.777344 218.417969 142.160156 218.167969 138.554688 C 217.917969 134.945312 217.007812 131.335938 215.523438 127.929688 C 214.039062 124.519531 211.976562 121.316406 209.46875 118.417969 C 208.84375 117.691406 208.191406 116.984375 207.511719 116.296875 C 207.175781 115.957031 206.820312 115.609375 206.480469 115.285156 L 205.972656 114.804688 L 205.402344 114.292969 C 204.042969 113.085938 202.554688 111.988281 200.949219 111.011719 C 197.738281 109.050781 194.089844 107.570312 190.234375 106.449219 C 186.375 105.332031 182.3125 104.5625 178.164062 104.011719 C 174.015625 103.460938 169.78125 103.140625 165.507812 102.925781 C 156.957031 102.511719 148.257812 102.574219 139.464844 102.445312 C 135.070312 102.382812 130.644531 102.277344 126.191406 102.023438 C 121.738281 101.761719 117.253906 101.355469 112.75 100.582031 C 108.257812 99.804688 103.71875 98.667969 99.359375 96.671875 C 97.1875 95.667969 95.074219 94.433594 93.132812 92.910156 C 91.191406 91.390625 89.4375 89.574219 88.027344 87.523438 C 86.613281 85.476562 85.546875 83.226562 84.800781 80.921875 C 84.421875 79.769531 84.136719 78.605469 83.910156 77.4375 C 83.683594 76.269531 83.519531 75.097656 83.417969 73.933594 C 83.355469 73.351562 83.332031 72.769531 83.296875 72.1875 C 83.277344 71.597656 83.25 70.96875 83.253906 70.449219 C 83.242188 69.304688 83.28125 68.117188 83.382812 66.960938 C 83.582031 64.628906 84.003906 62.316406 84.65625 60.078125 C 85.308594 57.835938 86.183594 55.667969 87.25 53.613281 C 88.316406 51.558594 89.570312 49.621094 90.960938 47.808594 C 93.734375 44.167969 97.046875 41.050781 100.570312 38.304688 C 104.105469 35.558594 107.875 33.191406 111.75 31.066406 C 115.628906 28.941406 119.632812 27.085938 123.679688 25.394531 L 124.402344 26.976562 " fill-opacity="1" fill-rule="nonzero"/></g><g fill="#18b6bd" fill-opacity="1"><g transform="translate(148.517557, 195.39778)"><g><path d="M 69.640625 -57.34375 L 73.828125 0 L 55.90625 0 L 53.875 -29.75 L 47.421875 -8.953125 L 30.578125 -8.953125 L 24.375 -29.5 L 22.09375 0 L 4.296875 0 L 8.484375 -57.34375 L 30.109375 -57.34375 L 39.0625 -31.890625 L 47.90625 -57.34375 Z M 69.640625 -57.34375 "/></g></g></g><g fill="#18b6bd" fill-opacity="1"><g transform="translate(226.637736, 195.39778)"><g><path d="M 58.65625 0 L 39.53125 0 L 37.03125 -9.5625 L 21.265625 -9.5625 L 19.109375 0 L 0 0 L 15.046875 -57.34375 L 41.5625 -57.34375 Z M 28.546875 -41.921875 L 24.484375 -23.765625 L 33.328125 -23.765625 Z M 28.546875 -41.921875 "/></g></g></g><g fill="#18b6bd" fill-opacity="1"><g transform="translate(285.287594, 195.39778)"><g><path d="M 54.828125 0 L 35.84375 0 L 31.171875 -14.09375 L 23.890625 -14.09375 L 23.890625 0 L 5.375 0 L 5.375 -57.34375 L 30.109375 -57.34375 C 38.066406 -57.34375 43.992188 -55.445312 47.890625 -51.65625 C 51.796875 -47.875 53.75 -42.519531 53.75 -35.59375 C 53.75 -28.90625 51.878906 -23.691406 48.140625 -19.953125 Z M 23.890625 -30.109375 L 28.671875 -30.109375 C 33.046875 -30.109375 35.234375 -31.9375 35.234375 -35.59375 C 35.234375 -39.34375 33.046875 -41.21875 28.671875 -41.21875 L 23.890625 -41.21875 Z M 23.890625 -30.109375 "/></g></g></g><g fill="#03989e" fill-opacity="1"><g transform="translate(265.008563, 213.159694)"><g><path d="M 6.75 -15.8125 L 6.75 -4.9375 L 11.203125 -4.9375 L 11.203125 0 L 1.484375 0 L 1.484375 -15.8125 Z M 6.75 -15.8125 "/></g></g></g><g fill="#03989e" fill-opacity="1"><g transform="translate(276.543224, 213.159694)"><g><path d="M 16.1875 0 L 10.90625 0 L 10.21875 -2.640625 L 5.859375 -2.640625 L 5.265625 0 L 0 0 L 4.15625 -15.8125 L 11.46875 -15.8125 Z M 7.875 -11.5625 L 6.75 -6.5625 L 9.1875 -6.5625 Z M 7.875 -11.5625 "/></g></g></g><g fill="#03989e" fill-opacity="1"><g transform="translate(292.7247, 213.159694)"><g><path d="M 0.328125 -15.8125 L 11.921875 -15.8125 L 11.921875 -10.875 L 8.765625 -10.875 L 8.765625 0 L 3.5 0 L 3.5 -10.875 L 0.328125 -10.875 Z M 0.328125 -15.8125 "/></g></g></g><g fill="#03989e" fill-opacity="1"><g transform="translate(304.98439, 213.159694)"><g><path d="M 16.1875 0 L 10.90625 0 L 10.21875 -2.640625 L 5.859375 -2.640625 L 5.265625 0 L 0 0 L 4.15625 -15.8125 L 11.46875 -15.8125 Z M 7.875 -11.5625 L 6.75 -6.5625 L 9.1875 -6.5625 Z M 7.875 -11.5625 "/></g></g></g><g fill="#03989e" fill-opacity="1"><g transform="translate(321.165866, 213.159694)"><g><path d="M 19.21875 -15.8125 L 20.359375 0 L 15.421875 0 L 14.859375 -8.203125 L 13.078125 -2.46875 L 8.4375 -2.46875 L 6.71875 -8.140625 L 6.09375 0 L 1.1875 0 L 2.34375 -15.8125 L 8.296875 -15.8125 L 10.78125 -8.796875 L 13.21875 -15.8125 Z M 19.21875 -15.8125 "/></g></g></g></svg>